<svg xmlns="http://www.w3.org/2000/svg" xmlns:xlink="http://www.w3.org/1999/xlink" width="500" zoomAndPan="magnify" viewBox="0 0 375 374.999991" height="500" preserveAspectRatio="xMidYMid meet" version="1.0"><defs><g/></defs><g fill="#e4c19d" fill-opacity="1"><g transform="translate(30.904982, 296.048298)"><g><path d="M 157.125 -160.203125 C 172.476562 -156.910156 183.992188 -151.632812 191.671875 -144.375 C 202.359375 -134.226562 207.703125 -121.882812 207.703125 -107.34375 C 207.703125 -96.238281 204.207031 -85.613281 197.21875 -75.46875 C 190.226562 -65.320312 180.597656 -57.914062 168.328125 -53.25 C 156.054688 -48.59375 137.375 -46.265625 112.28125 -46.265625 L 6.984375 -46.265625 L 6.984375 -52.4375 L 15.421875 -52.4375 C 24.742188 -52.4375 31.394531 -55.382812 35.375 -61.28125 C 37.976562 -65.125 39.28125 -73.28125 39.28125 -85.75 L 39.28125 -229.921875 C 39.28125 -243.765625 37.703125 -252.46875 34.546875 -256.03125 C 30.160156 -260.832031 23.785156 -263.234375 15.421875 -263.234375 L 6.984375 -263.234375 L 6.984375 -269.40625 L 103.4375 -269.40625 C 121.40625 -269.40625 135.800781 -268.101562 146.625 -265.5 C 163.082031 -261.519531 175.660156 -254.488281 184.359375 -244.40625 C 193.066406 -234.332031 197.421875 -222.785156 197.421875 -209.765625 C 197.421875 -198.660156 193.992188 -188.6875 187.140625 -179.84375 C 180.285156 -171 170.28125 -164.453125 157.125 -160.203125 Z M 70.75 -169.046875 C 74.851562 -168.222656 79.507812 -167.640625 84.71875 -167.296875 C 89.9375 -166.953125 95.695312 -166.78125 102 -166.78125 C 117.90625 -166.78125 129.898438 -168.492188 137.984375 -171.921875 C 146.078125 -175.347656 152.25 -180.625 156.5 -187.75 C 160.75 -194.882812 162.875 -202.703125 162.875 -211.203125 C 162.875 -224.222656 157.5625 -235.328125 146.9375 -244.515625 C 136.3125 -253.703125 120.785156 -258.296875 100.359375 -258.296875 C 89.390625 -258.296875 79.519531 -257.128906 70.75 -254.796875 Z M 70.75 -62.3125 C 83.5 -59.4375 96.109375 -58 108.578125 -58 C 128.328125 -58 143.410156 -62.453125 153.828125 -71.359375 C 164.242188 -80.273438 169.453125 -91.3125 169.453125 -104.46875 C 169.453125 -113.101562 167.117188 -121.429688 162.453125 -129.453125 C 157.796875 -137.472656 150.117188 -143.78125 139.421875 -148.375 C 128.734375 -152.96875 115.578125 -155.265625 99.953125 -155.265625 C 93.097656 -155.265625 87.269531 -155.160156 82.46875 -154.953125 C 77.664062 -154.753906 73.757812 -154.378906 70.75 -153.828125 Z M 70.75 -62.3125 "/></g></g></g><path stroke-linecap="butt" transform="matrix(6.748059, 0, 0, 6.748059, 110.086586, 10.540712)" fill="none" stroke-linejoin="miter" d="M 31.078863 14.31232 L 31.937907 24.767294 L 31.078863 24.767294 C 30.227924 22.172219 29.11302 20.210428 27.732415 18.8825 C 25.779886 16.972807 23.258328 16.01825 20.16774 16.01825 C 15.949513 16.01825 12.741994 17.684817 10.546339 21.017952 C 8.714794 23.847469 7.799021 27.202022 7.799021 31.082188 C 7.799021 34.224295 8.406835 37.097228 9.621883 39.701565 C 10.845615 42.305323 12.442718 44.210963 14.413192 45.417328 C 16.383666 46.623694 18.414921 47.226877 20.506379 47.226877 C 21.730689 47.226877 22.911005 47.075213 24.047906 46.771306 C 25.184807 46.467399 26.278872 46.011828 27.328942 45.404014 L 27.328942 35.860761 C 27.328942 34.194194 27.203328 33.108813 26.951519 32.605774 C 26.699711 32.093474 26.308973 31.702737 25.779886 31.433562 C 25.25022 31.156284 24.317081 31.017355 22.98047 31.017355 L 22.98047 30.105634 L 35.779289 30.105634 L 35.779289 31.017355 L 35.166844 31.017355 C 33.908381 31.017355 33.044706 31.442245 32.575821 32.293184 C 32.255127 32.900419 32.094201 34.089997 32.094201 35.860761 L 32.094201 45.977096 C 30.219241 46.975068 28.370909 47.713127 26.548047 48.190695 C 24.733868 48.667684 22.711295 48.906758 20.48033 48.906758 C 14.100602 48.906758 9.24446 46.854084 5.911326 42.748158 C 3.437235 39.684199 2.200189 36.13804 2.200189 32.11084 C 2.200189 29.211859 2.898886 26.429809 4.296857 23.764691 C 5.946058 20.596534 8.21986 18.157754 11.118842 16.447772 C 13.540834 15.02433 16.396401 14.31232 19.68612 14.31232 C 20.901747 14.31232 21.995233 14.416517 22.967156 14.62491 C 23.948341 14.82462 25.341102 15.25009 27.146598 15.90074 C 28.067002 16.248062 28.678868 16.421723 28.982774 16.421723 C 29.286102 16.421723 29.546594 16.278742 29.76367 15.992201 C 29.98943 15.70566 30.123727 15.145893 30.167143 14.31232 Z M 31.078863 14.31232 " stroke="#07363c" stroke-width="2.599998" stroke-opacity="1" stroke-miterlimit="4"/><g fill="#e4c19d" fill-opacity="1"><g transform="translate(110.086586, 381.683966)"><g><path d="M 209.75 -274.53125 L 215.515625 -204 L 209.75 -204 C 204 -221.539062 196.460938 -234.769531 187.140625 -243.6875 C 173.972656 -256.570312 156.972656 -263.015625 136.140625 -263.015625 C 107.617188 -263.015625 85.957031 -251.773438 71.15625 -229.296875 C 58.8125 -210.234375 52.640625 -187.613281 52.640625 -161.4375 C 52.640625 -140.1875 56.753906 -120.785156 64.984375 -103.234375 C 73.210938 -85.679688 83.972656 -72.828125 97.265625 -64.671875 C 110.566406 -56.515625 124.273438 -52.4375 138.390625 -52.4375 C 146.617188 -52.4375 154.570312 -53.460938 162.25 -55.515625 C 169.925781 -57.578125 177.332031 -60.664062 184.46875 -64.78125 L 184.46875 -129.140625 C 184.46875 -140.378906 183.609375 -147.710938 181.890625 -151.140625 C 180.179688 -154.566406 177.539062 -157.207031 173.96875 -159.0625 C 170.40625 -160.914062 164.101562 -161.84375 155.0625 -161.84375 L 155.0625 -168.015625 L 241.421875 -168.015625 L 241.421875 -161.84375 L 237.3125 -161.84375 C 228.8125 -161.84375 222.984375 -158.960938 219.828125 -153.203125 C 217.640625 -149.085938 216.546875 -141.066406 216.546875 -129.140625 L 216.546875 -60.875 C 203.929688 -54.15625 191.488281 -49.179688 179.21875 -45.953125 C 166.945312 -42.734375 153.269531 -41.125 138.1875 -41.125 C 95.144531 -41.125 62.378906 -54.972656 39.890625 -82.671875 C 23.171875 -103.367188 14.8125 -127.289062 14.8125 -154.4375 C 14.8125 -174.039062 19.539062 -192.820312 29 -210.78125 C 40.101562 -232.164062 55.457031 -248.617188 75.0625 -260.140625 C 91.375 -269.734375 110.632812 -274.53125 132.84375 -274.53125 C 141.070312 -274.53125 148.472656 -273.84375 155.046875 -272.46875 C 161.628906 -271.101562 171.023438 -268.226562 183.234375 -263.84375 C 189.398438 -261.507812 193.507812 -260.34375 195.5625 -260.34375 C 197.625 -260.34375 199.40625 -261.300781 200.90625 -263.21875 C 202.414062 -265.144531 203.3125 -268.914062 203.59375 -274.53125 Z M 209.75 -274.53125 "/></g></g></g></svg>