<svg xmlns="http://www.w3.org/2000/svg" xmlns:xlink="http://www.w3.org/1999/xlink" width="500" zoomAndPan="magnify" viewBox="0 0 375 187.499995" height="250" preserveAspectRatio="xMidYMid meet" version="1.0"><defs><g/><clipPath id="efd7944e2b"><path d="M 5 15 L 193 15 L 193 187 L 5 187 Z M 5 15 " clip-rule="nonzero"/></clipPath></defs><g fill="#e4c19d" fill-opacity="1"><g transform="translate(8.010355, 141.684869)"><g><path d="M 68.953125 -70.3125 C 75.691406 -68.863281 80.742188 -66.546875 84.109375 -63.359375 C 88.804688 -58.898438 91.15625 -53.484375 91.15625 -47.109375 C 91.15625 -42.234375 89.617188 -37.566406 86.546875 -33.109375 C 83.484375 -28.660156 79.257812 -25.414062 73.875 -23.375 C 68.488281 -21.332031 60.289062 -20.3125 49.28125 -20.3125 L 3.0625 -20.3125 L 3.0625 -23.015625 L 6.765625 -23.015625 C 10.859375 -23.015625 13.773438 -24.304688 15.515625 -26.890625 C 16.660156 -28.578125 17.234375 -32.160156 17.234375 -37.640625 L 17.234375 -100.90625 C 17.234375 -106.976562 16.539062 -110.796875 15.15625 -112.359375 C 13.238281 -114.460938 10.441406 -115.515625 6.765625 -115.515625 L 3.0625 -115.515625 L 3.0625 -118.234375 L 45.390625 -118.234375 C 53.273438 -118.234375 59.59375 -117.660156 64.34375 -116.515625 C 71.5625 -114.765625 77.082031 -111.675781 80.90625 -107.25 C 84.726562 -102.832031 86.640625 -97.769531 86.640625 -92.0625 C 86.640625 -87.1875 85.132812 -82.804688 82.125 -78.921875 C 79.113281 -75.046875 74.722656 -72.175781 68.953125 -70.3125 Z M 31.046875 -74.1875 C 32.847656 -73.820312 34.890625 -73.5625 37.171875 -73.40625 C 39.460938 -73.257812 41.992188 -73.1875 44.765625 -73.1875 C 51.742188 -73.1875 57.003906 -73.9375 60.546875 -75.4375 C 64.097656 -76.945312 66.804688 -79.265625 68.671875 -82.390625 C 70.546875 -85.523438 71.484375 -88.957031 71.484375 -92.6875 C 71.484375 -98.40625 69.148438 -103.28125 64.484375 -107.3125 C 59.816406 -111.34375 53.003906 -113.359375 44.046875 -113.359375 C 39.234375 -113.359375 34.898438 -112.84375 31.046875 -111.8125 Z M 31.046875 -27.34375 C 36.640625 -26.082031 42.175781 -25.453125 47.65625 -25.453125 C 56.3125 -25.453125 62.925781 -27.40625 67.5 -31.3125 C 72.070312 -35.226562 74.359375 -40.070312 74.359375 -45.84375 C 74.359375 -49.632812 73.335938 -53.289062 71.296875 -56.8125 C 69.253906 -60.332031 65.882812 -63.097656 61.1875 -65.109375 C 56.5 -67.128906 50.722656 -68.140625 43.859375 -68.140625 C 40.847656 -68.140625 38.289062 -68.09375 36.1875 -68 C 34.082031 -67.914062 32.367188 -67.75 31.046875 -67.5 Z M 31.046875 -27.34375 "/></g></g></g><g clip-path="url(#efd7944e2b)"><path stroke-linecap="butt" transform="matrix(2.961229, 0, 0, 2.961229, 42.757356, 16.396495)" fill="none" stroke-linejoin="miter" d="M 31.078893 14.311914 L 31.937647 24.76735 L 31.078893 24.76735 C 30.228053 22.172619 29.113387 20.21107 27.732256 18.882705 C 25.779941 16.972602 23.257762 16.017551 20.168356 16.017551 C 15.949773 16.017551 12.741645 17.684933 10.546611 21.018379 C 8.714337 23.847916 7.79886 27.202467 7.79886 31.082033 C 7.79886 34.224204 8.406979 37.097273 9.621899 39.701238 C 10.846053 42.305204 12.442203 44.211349 14.412985 45.417035 C 16.383767 46.62404 18.41523 47.226883 20.506053 47.226883 C 21.730208 47.226883 22.91083 47.075183 24.047922 46.771783 C 25.185013 46.467064 26.278573 46.011963 27.328602 45.403844 L 27.328602 35.859927 C 27.328602 34.193864 27.203284 33.109538 26.95133 32.60563 C 26.699376 32.093807 26.308913 31.703344 25.779941 31.434241 C 25.24965 31.155904 24.317024 31.017395 22.980744 31.017395 L 22.980744 30.105876 L 35.778958 30.105876 L 35.778958 31.017395 L 35.166881 31.017395 C 33.90843 31.017395 33.044399 31.442156 32.576107 32.292996 C 32.255558 32.901115 32.094624 34.089653 32.094624 35.859927 L 32.094624 45.977666 C 30.218819 46.974929 28.370716 47.713643 26.547676 48.191169 C 24.73387 48.667375 22.711641 48.906138 20.48099 48.906138 C 14.100351 48.906138 9.244628 46.853569 5.911182 42.748432 C 3.437811 39.684089 2.200465 36.138264 2.200465 32.110955 C 2.200465 29.211504 2.899605 26.429456 4.296565 23.76481 C 5.94548 20.596256 8.219663 18.157182 11.119114 16.447588 C 13.541039 15.024245 16.396959 14.311914 19.686873 14.311914 C 20.901793 14.311914 21.995353 14.416125 22.967553 14.624548 C 23.947668 14.825056 25.34067 15.249816 27.146562 15.901467 C 28.067315 16.248399 28.679392 16.421205 28.982793 16.421205 C 29.286193 16.421205 29.547381 16.278739 29.763718 15.992487 C 29.98929 15.706236 30.123841 15.145605 30.167373 14.311914 Z M 31.078893 14.311914 " stroke="#07363c" stroke-width="2.599998" stroke-opacity="1" stroke-miterlimit="4"/></g><g fill="#e4c19d" fill-opacity="1"><g transform="translate(42.757356, 179.264069)"><g><path d="M 92.046875 -120.46875 L 94.578125 -89.515625 L 92.046875 -89.515625 C 89.515625 -97.210938 86.207031 -103.019531 82.125 -106.9375 C 76.34375 -112.59375 68.878906 -115.421875 59.734375 -115.421875 C 47.222656 -115.421875 37.71875 -110.488281 31.21875 -100.625 C 25.8125 -92.257812 23.109375 -82.332031 23.109375 -70.84375 C 23.109375 -61.519531 24.910156 -53.003906 28.515625 -45.296875 C 32.128906 -37.597656 36.851562 -31.957031 42.6875 -28.375 C 48.519531 -24.800781 54.535156 -23.015625 60.734375 -23.015625 C 64.335938 -23.015625 67.820312 -23.460938 71.1875 -24.359375 C 74.5625 -25.265625 77.816406 -26.617188 80.953125 -28.421875 L 80.953125 -56.671875 C 80.953125 -61.609375 80.570312 -64.828125 79.8125 -66.328125 C 79.0625 -67.828125 77.90625 -68.984375 76.34375 -69.796875 C 74.78125 -70.609375 72.015625 -71.015625 68.046875 -71.015625 L 68.046875 -73.734375 L 105.9375 -73.734375 L 105.9375 -71.015625 L 104.140625 -71.015625 C 100.410156 -71.015625 97.851562 -69.753906 96.46875 -67.234375 C 95.507812 -65.421875 95.03125 -61.898438 95.03125 -56.671875 L 95.03125 -26.71875 C 89.488281 -23.769531 84.023438 -21.585938 78.640625 -20.171875 C 73.253906 -18.753906 67.253906 -18.046875 60.640625 -18.046875 C 41.753906 -18.046875 27.375 -24.125 17.5 -36.28125 C 10.164062 -45.363281 6.5 -55.859375 6.5 -67.765625 C 6.5 -76.367188 8.570312 -84.613281 12.71875 -92.5 C 17.59375 -101.882812 24.332031 -109.101562 32.9375 -114.15625 C 40.09375 -118.363281 48.546875 -120.46875 58.296875 -120.46875 C 61.898438 -120.46875 65.144531 -120.164062 68.03125 -119.5625 C 70.925781 -118.96875 75.050781 -117.707031 80.40625 -115.78125 C 83.113281 -114.757812 84.914062 -114.25 85.8125 -114.25 C 86.71875 -114.25 87.5 -114.664062 88.15625 -115.5 C 88.820312 -116.34375 89.21875 -118 89.34375 -120.46875 Z M 92.046875 -120.46875 "/></g></g></g><g fill="#e4c19d" fill-opacity="1"><g transform="translate(152.134206, 106.576607)"><g><path d="M 47.234375 -32.6875 C 49.035156 -32.15625 50.640625 -31.347656 52.046875 -30.265625 C 53.453125 -29.191406 54.648438 -27.945312 55.640625 -26.53125 C 56.628906 -25.125 57.390625 -23.65625 57.921875 -22.125 C 58.460938 -20.601562 58.734375 -19.125 58.734375 -17.6875 C 58.734375 -15.113281 58.238281 -12.75 57.25 -10.59375 C 56.269531 -8.4375 54.773438 -6.566406 52.765625 -4.984375 C 50.753906 -3.398438 48.191406 -2.171875 45.078125 -1.296875 C 41.972656 -0.429688 38.289062 0 34.03125 0 C 27.269531 0 21.390625 -0.910156 16.390625 -2.734375 C 11.390625 -4.566406 6.820312 -7.1875 2.6875 -10.59375 C 2.507812 -10.894531 2.554688 -11.238281 2.828125 -11.625 C 3.097656 -12.019531 3.5 -12.363281 4.03125 -12.65625 C 4.570312 -12.957031 5.15625 -13.164062 5.78125 -13.28125 C 6.414062 -13.40625 7.003906 -13.347656 7.546875 -13.109375 C 8.679688 -11.972656 9.816406 -11.238281 10.953125 -10.90625 C 12.085938 -10.582031 13.492188 -10.570312 15.171875 -10.875 C 16.734375 -11.164062 18.035156 -11.742188 19.078125 -12.609375 C 20.128906 -13.484375 21.085938 -14.847656 21.953125 -16.703125 C 22.828125 -18.554688 23.726562 -20.976562 24.65625 -23.96875 C 25.582031 -26.96875 26.675781 -30.742188 27.9375 -35.296875 C 29.1875 -39.785156 30.753906 -43.675781 32.640625 -46.96875 C 34.523438 -50.257812 36.816406 -53.046875 39.515625 -55.328125 C 39.160156 -55.328125 38.785156 -55.34375 38.390625 -55.375 C 38.003906 -55.40625 37.570312 -55.421875 37.09375 -55.421875 C 35.113281 -55.421875 33.164062 -55.148438 31.25 -54.609375 C 29.332031 -54.066406 27.519531 -53.253906 25.8125 -52.171875 C 24.113281 -51.097656 22.570312 -49.796875 21.1875 -48.265625 C 19.8125 -46.742188 18.707031 -44.992188 17.875 -43.015625 C 17.695312 -42.898438 17.53125 -42.882812 17.375 -42.96875 C 17.226562 -43.0625 17.1875 -43.257812 17.25 -43.5625 C 17.96875 -45.414062 19.039062 -47.207031 20.46875 -48.9375 C 21.90625 -50.675781 23.640625 -52.203125 25.671875 -53.515625 C 27.710938 -54.835938 30.019531 -55.890625 32.59375 -56.671875 C 35.175781 -57.453125 37.90625 -57.84375 40.78125 -57.84375 C 41.195312 -57.84375 41.582031 -57.84375 41.9375 -57.84375 C 42.300781 -57.84375 42.660156 -57.8125 43.015625 -57.75 C 44.273438 -58.46875 45.59375 -59.109375 46.96875 -59.671875 C 48.34375 -60.242188 49.8125 -60.710938 51.375 -61.078125 C 51.675781 -61.078125 51.828125 -60.96875 51.828125 -60.75 C 51.828125 -60.539062 51.675781 -60.378906 51.375 -60.265625 C 49.21875 -59.722656 47.238281 -58.820312 45.4375 -57.5625 C 50.707031 -56.90625 54.644531 -55.410156 57.25 -53.078125 C 59.851562 -50.742188 61.15625 -48.019531 61.15625 -44.90625 C 61.15625 -43.113281 60.796875 -41.46875 60.078125 -39.96875 C 59.359375 -38.46875 58.382812 -37.175781 57.15625 -36.09375 C 55.9375 -35.019531 54.472656 -34.179688 52.765625 -33.578125 C 51.054688 -32.984375 49.210938 -32.6875 47.234375 -32.6875 Z M 36.015625 -1.34375 C 38.710938 -1.34375 41.125 -1.71875 43.25 -2.46875 C 45.375 -3.21875 47.15625 -4.234375 48.59375 -5.515625 C 50.03125 -6.804688 51.117188 -8.316406 51.859375 -10.046875 C 52.609375 -11.785156 52.984375 -13.675781 52.984375 -15.71875 C 52.984375 -23.5 48.195312 -28.675781 38.625 -31.25 C 38.4375 -31.4375 38.507812 -31.722656 38.84375 -32.109375 C 39.175781 -32.492188 39.609375 -32.878906 40.140625 -33.265625 C 40.679688 -33.660156 41.25 -33.976562 41.84375 -34.21875 C 42.445312 -34.457031 42.929688 -34.546875 43.296875 -34.484375 C 43.890625 -34.242188 44.410156 -34.0625 44.859375 -33.9375 C 45.304688 -33.820312 45.890625 -33.765625 46.609375 -33.765625 C 47.691406 -33.765625 48.753906 -34.003906 49.796875 -34.484375 C 50.847656 -34.960938 51.773438 -35.601562 52.578125 -36.40625 C 53.390625 -37.21875 54.050781 -38.191406 54.5625 -39.328125 C 55.070312 -40.472656 55.328125 -41.703125 55.328125 -43.015625 C 55.328125 -45.890625 54.25 -48.4375 52.09375 -50.65625 C 49.9375 -52.875 46.703125 -54.3125 42.390625 -54.96875 C 38.554688 -51.007812 35.5625 -44.988281 33.40625 -36.90625 C 31.851562 -31.101562 30.3125 -26.421875 28.78125 -22.859375 C 27.257812 -19.296875 25.675781 -16.507812 24.03125 -14.5 C 22.382812 -12.5 20.628906 -11.140625 18.765625 -10.421875 C 16.910156 -9.703125 14.816406 -9.28125 12.484375 -9.15625 C 15.535156 -6.882812 19.097656 -5.015625 23.171875 -3.546875 C 27.242188 -2.078125 31.523438 -1.34375 36.015625 -1.34375 Z M 36.015625 -1.34375 "/></g></g></g><g fill="#e4c19d" fill-opacity="1"><g transform="translate(211.845649, 106.576607)"><g><path d="M 41.140625 -66.734375 C 42.035156 -66.734375 42.765625 -66.507812 43.328125 -66.0625 C 43.898438 -65.613281 44.289062 -65.015625 44.5 -64.265625 C 44.707031 -63.515625 44.738281 -62.660156 44.59375 -61.703125 C 44.445312 -60.742188 44.101562 -59.785156 43.5625 -58.828125 C 43.4375 -58.703125 43.285156 -58.695312 43.109375 -58.8125 C 42.929688 -58.9375 42.8125 -59.09375 42.75 -59.28125 C 42.875 -60 42.617188 -60.597656 41.984375 -61.078125 C 41.359375 -61.554688 40.382812 -61.796875 39.0625 -61.796875 C 36.613281 -61.796875 34.144531 -60.878906 31.65625 -59.046875 C 29.175781 -57.222656 26.765625 -54.8125 24.421875 -51.8125 C 22.085938 -48.820312 19.898438 -45.378906 17.859375 -41.484375 C 15.828125 -37.597656 14.0625 -33.585938 12.5625 -29.453125 C 11.070312 -25.328125 9.890625 -21.226562 9.015625 -17.15625 C 8.148438 -13.082031 7.71875 -9.367188 7.71875 -6.015625 C 7.71875 -4.222656 8.226562 -3.328125 9.25 -3.328125 C 9.96875 -3.328125 10.671875 -3.625 11.359375 -4.21875 C 12.046875 -4.820312 12.835938 -5.722656 13.734375 -6.921875 C 13.921875 -7.035156 14.085938 -7.015625 14.234375 -6.859375 C 14.378906 -6.710938 14.425781 -6.519531 14.375 -6.28125 C 13.175781 -4.488281 11.765625 -2.992188 10.140625 -1.796875 C 8.523438 -0.597656 7.0625 0 5.75 0 C 4.613281 0 3.816406 -0.328125 3.359375 -0.984375 C 2.910156 -1.640625 2.6875 -2.476562 2.6875 -3.5 C 2.6875 -6.3125 3.285156 -9.828125 4.484375 -14.046875 C 5.679688 -18.273438 7.28125 -22.738281 9.28125 -27.4375 C 11.289062 -32.132812 13.613281 -36.816406 16.25 -41.484375 C 18.882812 -46.160156 21.625 -50.367188 24.46875 -54.109375 C 27.3125 -57.847656 30.171875 -60.882812 33.046875 -63.21875 C 35.921875 -65.5625 38.617188 -66.734375 41.140625 -66.734375 Z M 41.140625 -66.734375 "/></g></g></g><g fill="#e4c19d" fill-opacity="1"><g transform="translate(225.31441, 106.576607)"><g><path d="M 16.078125 -22.984375 C 18.171875 -22.984375 19.726562 -22.351562 20.75 -21.09375 C 21.769531 -19.84375 22.28125 -18.378906 22.28125 -16.703125 C 22.28125 -14.367188 21.8125 -12.195312 20.875 -10.1875 C 19.945312 -8.1875 18.8125 -6.421875 17.46875 -4.890625 C 16.125 -3.367188 14.671875 -2.171875 13.109375 -1.296875 C 11.554688 -0.429688 10.148438 0 8.890625 0 C 6.859375 0 5.316406 -0.613281 4.265625 -1.84375 C 3.210938 -3.070312 2.6875 -4.644531 2.6875 -6.5625 C 2.6875 -8.289062 3.0625 -10.113281 3.8125 -12.03125 C 4.5625 -13.945312 5.550781 -15.710938 6.78125 -17.328125 C 8.007812 -18.953125 9.429688 -20.300781 11.046875 -21.375 C 12.660156 -22.445312 14.335938 -22.984375 16.078125 -22.984375 Z M 11.140625 -2.78125 C 12.992188 -2.78125 14.5625 -3.753906 15.84375 -5.703125 C 17.132812 -7.648438 17.78125 -10.328125 17.78125 -13.734375 C 17.78125 -15.535156 17.421875 -17.035156 16.703125 -18.234375 C 15.984375 -19.429688 14.9375 -20.03125 13.5625 -20.03125 C 11.644531 -20.03125 10.085938 -19.097656 8.890625 -17.234375 C 7.691406 -15.378906 7.09375 -12.660156 7.09375 -9.078125 C 7.09375 -6.972656 7.46875 -5.394531 8.21875 -4.34375 C 8.96875 -3.300781 9.941406 -2.78125 11.140625 -2.78125 Z M 11.140625 -2.78125 "/></g></g></g><g fill="#e4c19d" fill-opacity="1"><g transform="translate(248.480655, 106.576607)"><g><path d="M 21.640625 -24.34375 C 21.828125 -24.457031 22.007812 -24.4375 22.1875 -24.28125 C 22.363281 -24.132812 22.421875 -23.972656 22.359375 -23.796875 C 21.878906 -23.140625 21.335938 -22.539062 20.734375 -22 C 20.140625 -21.46875 19.394531 -21.140625 18.5 -21.015625 C 19.34375 -20.054688 19.765625 -18.890625 19.765625 -17.515625 C 19.765625 -16.015625 19.535156 -14.707031 19.078125 -13.59375 C 18.628906 -12.488281 18.101562 -11.457031 17.5 -10.5 C 16.90625 -9.550781 16.304688 -8.671875 15.703125 -7.859375 C 15.109375 -7.046875 14.644531 -6.21875 14.3125 -5.375 C 13.988281 -4.539062 13.867188 -3.628906 13.953125 -2.640625 C 14.046875 -1.660156 14.515625 -0.539062 15.359375 0.71875 C 16.671875 2.75 17.640625 4.539062 18.265625 6.09375 C 18.898438 7.65625 19.21875 9.335938 19.21875 11.140625 C 19.21875 12.628906 18.875 14.019531 18.1875 15.3125 C 17.5 16.601562 16.523438 17.738281 15.265625 18.71875 C 14.003906 19.707031 12.460938 20.488281 10.640625 21.0625 C 8.816406 21.632812 6.796875 21.921875 4.578125 21.921875 C 0.0234375 21.921875 -3.566406 21.082031 -6.203125 19.40625 C -8.835938 17.726562 -10.15625 15.507812 -10.15625 12.75 C -10.15625 10.65625 -9.421875 8.785156 -7.953125 7.140625 C -6.484375 5.492188 -4.3125 4.28125 -1.4375 3.5 C -1.132812 3.5 -0.9375 3.601562 -0.84375 3.8125 C -0.757812 4.019531 -0.773438 4.21875 -0.890625 4.40625 C -2.210938 4.882812 -3.257812 5.601562 -4.03125 6.5625 C -4.8125 7.519531 -5.203125 8.773438 -5.203125 10.328125 C -5.203125 13.378906 -4.15625 15.847656 -2.0625 17.734375 C 0.03125 19.617188 2.785156 20.5625 6.203125 20.5625 C 9.078125 20.5625 11.203125 19.8125 12.578125 18.3125 C 13.953125 16.820312 14.640625 14.9375 14.640625 12.65625 C 14.640625 11.28125 14.425781 10.050781 14 8.96875 C 13.582031 7.894531 12.988281 6.671875 12.21875 5.296875 C 11.082031 3.378906 10.570312 1.523438 10.6875 -0.265625 C 10.8125 -2.066406 11.410156 -3.894531 12.484375 -5.75 C 12.546875 -5.863281 12.585938 -5.9375 12.609375 -5.96875 C 12.640625 -6 12.6875 -6.078125 12.75 -6.203125 C 12.09375 -5.535156 11.390625 -4.992188 10.640625 -4.578125 C 9.890625 -4.160156 9.15625 -3.953125 8.4375 -3.953125 C 6.707031 -3.953125 5.375 -4.457031 4.4375 -5.46875 C 3.507812 -6.488281 3.046875 -7.988281 3.046875 -9.96875 C 3.046875 -11.46875 3.375 -12.992188 4.03125 -14.546875 C 4.695312 -16.109375 5.550781 -17.515625 6.59375 -18.765625 C 7.644531 -20.023438 8.828125 -21.039062 10.140625 -21.8125 C 11.460938 -22.59375 12.8125 -22.984375 14.1875 -22.984375 C 16.226562 -22.984375 17.816406 -23.054688 18.953125 -23.203125 C 20.085938 -23.359375 20.984375 -23.738281 21.640625 -24.34375 Z M 14.453125 -9.34375 C 14.816406 -10.175781 15.117188 -11.039062 15.359375 -11.9375 C 15.597656 -12.84375 15.71875 -13.773438 15.71875 -14.734375 C 15.71875 -16.410156 15.429688 -17.753906 14.859375 -18.765625 C 14.296875 -19.785156 13.382812 -20.296875 12.125 -20.296875 C 10.570312 -20.296875 9.328125 -19.617188 8.390625 -18.265625 C 7.460938 -16.921875 7 -14.8125 7 -11.9375 C 7 -8.46875 8.140625 -6.734375 10.421875 -6.734375 C 11.078125 -6.734375 11.789062 -6.988281 12.5625 -7.5 C 13.34375 -8.007812 13.972656 -8.625 14.453125 -9.34375 Z M 14.453125 -9.34375 "/></g></g></g><g fill="#e4c19d" fill-opacity="1"><g transform="translate(269.851087, 106.576607)"><g><path d="M 21.640625 -24.34375 C 21.828125 -24.457031 22.007812 -24.4375 22.1875 -24.28125 C 22.363281 -24.132812 22.421875 -23.972656 22.359375 -23.796875 C 21.878906 -23.140625 21.335938 -22.539062 20.734375 -22 C 20.140625 -21.46875 19.394531 -21.140625 18.5 -21.015625 C 19.34375 -20.054688 19.765625 -18.890625 19.765625 -17.515625 C 19.765625 -16.015625 19.535156 -14.707031 19.078125 -13.59375 C 18.628906 -12.488281 18.101562 -11.457031 17.5 -10.5 C 16.90625 -9.550781 16.304688 -8.671875 15.703125 -7.859375 C 15.109375 -7.046875 14.644531 -6.21875 14.3125 -5.375 C 13.988281 -4.539062 13.867188 -3.628906 13.953125 -2.640625 C 14.046875 -1.660156 14.515625 -0.539062 15.359375 0.71875 C 16.671875 2.75 17.640625 4.539062 18.265625 6.09375 C 18.898438 7.65625 19.21875 9.335938 19.21875 11.140625 C 19.21875 12.628906 18.875 14.019531 18.1875 15.3125 C 17.5 16.601562 16.523438 17.738281 15.265625 18.71875 C 14.003906 19.707031 12.460938 20.488281 10.640625 21.0625 C 8.816406 21.632812 6.796875 21.921875 4.578125 21.921875 C 0.0234375 21.921875 -3.566406 21.082031 -6.203125 19.40625 C -8.835938 17.726562 -10.15625 15.507812 -10.15625 12.75 C -10.15625 10.65625 -9.421875 8.785156 -7.953125 7.140625 C -6.484375 5.492188 -4.3125 4.28125 -1.4375 3.5 C -1.132812 3.5 -0.9375 3.601562 -0.84375 3.8125 C -0.757812 4.019531 -0.773438 4.21875 -0.890625 4.40625 C -2.210938 4.882812 -3.257812 5.601562 -4.03125 6.5625 C -4.8125 7.519531 -5.203125 8.773438 -5.203125 10.328125 C -5.203125 13.378906 -4.15625 15.847656 -2.0625 17.734375 C 0.03125 19.617188 2.785156 20.5625 6.203125 20.5625 C 9.078125 20.5625 11.203125 19.8125 12.578125 18.3125 C 13.953125 16.820312 14.640625 14.9375 14.640625 12.65625 C 14.640625 11.28125 14.425781 10.050781 14 8.96875 C 13.582031 7.894531 12.988281 6.671875 12.21875 5.296875 C 11.082031 3.378906 10.570312 1.523438 10.6875 -0.265625 C 10.8125 -2.066406 11.410156 -3.894531 12.484375 -5.75 C 12.546875 -5.863281 12.585938 -5.9375 12.609375 -5.96875 C 12.640625 -6 12.6875 -6.078125 12.75 -6.203125 C 12.09375 -5.535156 11.390625 -4.992188 10.640625 -4.578125 C 9.890625 -4.160156 9.15625 -3.953125 8.4375 -3.953125 C 6.707031 -3.953125 5.375 -4.457031 4.4375 -5.46875 C 3.507812 -6.488281 3.046875 -7.988281 3.046875 -9.96875 C 3.046875 -11.46875 3.375 -12.992188 4.03125 -14.546875 C 4.695312 -16.109375 5.550781 -17.515625 6.59375 -18.765625 C 7.644531 -20.023438 8.828125 -21.039062 10.140625 -21.8125 C 11.460938 -22.59375 12.8125 -22.984375 14.1875 -22.984375 C 16.226562 -22.984375 17.816406 -23.054688 18.953125 -23.203125 C 20.085938 -23.359375 20.984375 -23.738281 21.640625 -24.34375 Z M 14.453125 -9.34375 C 14.816406 -10.175781 15.117188 -11.039062 15.359375 -11.9375 C 15.597656 -12.84375 15.71875 -13.773438 15.71875 -14.734375 C 15.71875 -16.410156 15.429688 -17.753906 14.859375 -18.765625 C 14.296875 -19.785156 13.382812 -20.296875 12.125 -20.296875 C 10.570312 -20.296875 9.328125 -19.617188 8.390625 -18.265625 C 7.460938 -16.921875 7 -14.8125 7 -11.9375 C 7 -8.46875 8.140625 -6.734375 10.421875 -6.734375 C 11.078125 -6.734375 11.789062 -6.988281 12.5625 -7.5 C 13.34375 -8.007812 13.972656 -8.625 14.453125 -9.34375 Z M 14.453125 -9.34375 "/></g></g></g><g fill="#e4c19d" fill-opacity="1"><g transform="translate(291.221519, 106.576607)"><g><path d="M 14.28125 -26.859375 C 14.101562 -26.671875 13.90625 -26.664062 13.6875 -26.84375 C 13.476562 -27.03125 13.3125 -27.285156 13.1875 -27.609375 C 13.070312 -27.941406 13.015625 -28.300781 13.015625 -28.6875 C 13.015625 -29.082031 13.109375 -29.429688 13.296875 -29.734375 C 13.953125 -30.566406 14.921875 -31.625 16.203125 -32.90625 C 17.492188 -34.195312 18.828125 -35.289062 20.203125 -36.1875 C 20.328125 -36.25 20.476562 -36.203125 20.65625 -36.046875 C 20.832031 -35.898438 20.894531 -35.769531 20.84375 -35.65625 C 19.582031 -34.519531 18.378906 -33.15625 17.234375 -31.5625 C 16.097656 -29.976562 15.113281 -28.410156 14.28125 -26.859375 Z M 4.671875 -16.703125 C 4.492188 -16.585938 4.34375 -16.632812 4.21875 -16.84375 C 4.101562 -17.050781 4.070312 -17.242188 4.125 -17.421875 C 6.34375 -19.222656 9.425781 -21.078125 13.375 -22.984375 C 13.851562 -22.984375 14.09375 -22.71875 14.09375 -22.1875 C 13.320312 -20.8125 12.5625 -19.3125 11.8125 -17.6875 C 11.0625 -16.070312 10.398438 -14.472656 9.828125 -12.890625 C 9.265625 -11.304688 8.800781 -9.78125 8.4375 -8.3125 C 8.082031 -6.84375 7.90625 -5.628906 7.90625 -4.671875 C 7.90625 -3.472656 8.320312 -2.875 9.15625 -2.875 C 9.820312 -2.875 10.46875 -3.15625 11.09375 -3.71875 C 11.71875 -4.289062 12.453125 -5.023438 13.296875 -5.921875 C 13.410156 -6.046875 13.554688 -6.03125 13.734375 -5.875 C 13.921875 -5.726562 13.953125 -5.503906 13.828125 -5.203125 C 12.515625 -3.648438 11.210938 -2.394531 9.921875 -1.4375 C 8.640625 -0.476562 7.398438 0 6.203125 0 C 4.097656 0 3.046875 -0.988281 3.046875 -2.96875 C 3.046875 -4.039062 3.210938 -5.3125 3.546875 -6.78125 C 3.878906 -8.25 4.328125 -9.742188 4.890625 -11.265625 C 5.460938 -12.796875 6.09375 -14.296875 6.78125 -15.765625 C 7.46875 -17.234375 8.171875 -18.503906 8.890625 -19.578125 C 8.234375 -19.222656 7.5 -18.773438 6.6875 -18.234375 C 5.882812 -17.691406 5.210938 -17.179688 4.671875 -16.703125 Z M 4.671875 -16.703125 "/></g></g></g><g fill="#e4c19d" fill-opacity="1"><g transform="translate(306.126937, 106.576607)"><g><path d="M 28.203125 -6.28125 C 28.316406 -6.40625 28.460938 -6.390625 28.640625 -6.234375 C 28.828125 -6.085938 28.890625 -5.894531 28.828125 -5.65625 C 27.753906 -4.15625 26.507812 -2.835938 25.09375 -1.703125 C 23.6875 -0.566406 22.296875 0 20.921875 0 C 19.910156 0 19.117188 -0.328125 18.546875 -0.984375 C 17.972656 -1.640625 17.6875 -2.507812 17.6875 -3.59375 C 17.6875 -5.6875 18.0625 -7.957031 18.8125 -10.40625 C 19.5625 -12.863281 20.566406 -15.351562 21.828125 -17.875 C 22.003906 -18.289062 22.09375 -18.738281 22.09375 -19.21875 C 22.09375 -19.820312 21.820312 -20.125 21.28125 -20.125 C 19.070312 -20.125 16.617188 -18.609375 13.921875 -15.578125 C 11.222656 -12.554688 8.738281 -7.753906 6.46875 -1.171875 C 6.40625 -0.984375 6.207031 -0.816406 5.875 -0.671875 C 5.550781 -0.523438 5.175781 -0.40625 4.75 -0.3125 C 4.332031 -0.21875 3.914062 -0.140625 3.5 -0.078125 C 3.082031 -0.0234375 2.753906 0 2.515625 0 C 2.210938 0 1.984375 -0.0546875 1.828125 -0.171875 C 1.679688 -0.296875 1.671875 -0.507812 1.796875 -0.8125 C 2.816406 -3.382812 3.847656 -6.210938 4.890625 -9.296875 C 5.941406 -12.378906 6.859375 -15.476562 7.640625 -18.59375 C 7.816406 -19.1875 7.84375 -19.617188 7.71875 -19.890625 C 7.601562 -20.160156 7.394531 -20.296875 7.09375 -20.296875 C 6.4375 -20.296875 5.804688 -20.007812 5.203125 -19.4375 C 4.609375 -18.875 4.070312 -18.265625 3.59375 -17.609375 C 3.414062 -17.484375 3.25 -17.507812 3.09375 -17.6875 C 2.945312 -17.875 2.90625 -18.054688 2.96875 -18.234375 C 3.257812 -18.648438 3.660156 -19.128906 4.171875 -19.671875 C 4.679688 -20.210938 5.265625 -20.734375 5.921875 -21.234375 C 6.585938 -21.742188 7.28125 -22.160156 8 -22.484375 C 8.71875 -22.816406 9.4375 -22.984375 10.15625 -22.984375 C 11.164062 -22.984375 11.832031 -22.671875 12.15625 -22.046875 C 12.488281 -21.421875 12.566406 -20.660156 12.390625 -19.765625 C 12.085938 -18.441406 11.769531 -17.195312 11.4375 -16.03125 C 11.113281 -14.863281 10.710938 -13.5625 10.234375 -12.125 C 10.953125 -13.4375 11.832031 -14.738281 12.875 -16.03125 C 13.925781 -17.320312 15.097656 -18.488281 16.390625 -19.53125 C 17.679688 -20.582031 19.070312 -21.421875 20.5625 -22.046875 C 22.0625 -22.671875 23.648438 -22.984375 25.328125 -22.984375 C 26.046875 -22.984375 26.597656 -22.804688 26.984375 -22.453125 C 27.378906 -22.097656 27.578125 -21.679688 27.578125 -21.203125 C 27.578125 -20.359375 27.363281 -19.609375 26.9375 -18.953125 C 25.6875 -16.671875 24.625 -14.316406 23.75 -11.890625 C 22.882812 -9.472656 22.453125 -7.304688 22.453125 -5.390625 C 22.453125 -3.828125 22.960938 -3.046875 23.984375 -3.046875 C 24.640625 -3.046875 25.296875 -3.316406 25.953125 -3.859375 C 26.609375 -4.398438 27.359375 -5.207031 28.203125 -6.28125 Z M 28.203125 -6.28125 "/></g></g></g><g fill="#e4c19d" fill-opacity="1"><g transform="translate(335.039849, 106.576607)"><g><path d="M 21.640625 -24.34375 C 21.828125 -24.457031 22.007812 -24.4375 22.1875 -24.28125 C 22.363281 -24.132812 22.421875 -23.972656 22.359375 -23.796875 C 21.878906 -23.140625 21.335938 -22.539062 20.734375 -22 C 20.140625 -21.46875 19.394531 -21.140625 18.5 -21.015625 C 19.34375 -20.054688 19.765625 -18.890625 19.765625 -17.515625 C 19.765625 -16.015625 19.535156 -14.707031 19.078125 -13.59375 C 18.628906 -12.488281 18.101562 -11.457031 17.5 -10.5 C 16.90625 -9.550781 16.304688 -8.671875 15.703125 -7.859375 C 15.109375 -7.046875 14.644531 -6.21875 14.3125 -5.375 C 13.988281 -4.539062 13.867188 -3.628906 13.953125 -2.640625 C 14.046875 -1.660156 14.515625 -0.539062 15.359375 0.71875 C 16.671875 2.75 17.640625 4.539062 18.265625 6.09375 C 18.898438 7.65625 19.21875 9.335938 19.21875 11.140625 C 19.21875 12.628906 18.875 14.019531 18.1875 15.3125 C 17.5 16.601562 16.523438 17.738281 15.265625 18.71875 C 14.003906 19.707031 12.460938 20.488281 10.640625 21.0625 C 8.816406 21.632812 6.796875 21.921875 4.578125 21.921875 C 0.0234375 21.921875 -3.566406 21.082031 -6.203125 19.40625 C -8.835938 17.726562 -10.15625 15.507812 -10.15625 12.75 C -10.15625 10.65625 -9.421875 8.785156 -7.953125 7.140625 C -6.484375 5.492188 -4.3125 4.28125 -1.4375 3.5 C -1.132812 3.5 -0.9375 3.601562 -0.84375 3.8125 C -0.757812 4.019531 -0.773438 4.21875 -0.890625 4.40625 C -2.210938 4.882812 -3.257812 5.601562 -4.03125 6.5625 C -4.8125 7.519531 -5.203125 8.773438 -5.203125 10.328125 C -5.203125 13.378906 -4.15625 15.847656 -2.0625 17.734375 C 0.03125 19.617188 2.785156 20.5625 6.203125 20.5625 C 9.078125 20.5625 11.203125 19.8125 12.578125 18.3125 C 13.953125 16.820312 14.640625 14.9375 14.640625 12.65625 C 14.640625 11.28125 14.425781 10.050781 14 8.96875 C 13.582031 7.894531 12.988281 6.671875 12.21875 5.296875 C 11.082031 3.378906 10.570312 1.523438 10.6875 -0.265625 C 10.8125 -2.066406 11.410156 -3.894531 12.484375 -5.75 C 12.546875 -5.863281 12.585938 -5.9375 12.609375 -5.96875 C 12.640625 -6 12.6875 -6.078125 12.75 -6.203125 C 12.09375 -5.535156 11.390625 -4.992188 10.640625 -4.578125 C 9.890625 -4.160156 9.15625 -3.953125 8.4375 -3.953125 C 6.707031 -3.953125 5.375 -4.457031 4.4375 -5.46875 C 3.507812 -6.488281 3.046875 -7.988281 3.046875 -9.96875 C 3.046875 -11.46875 3.375 -12.992188 4.03125 -14.546875 C 4.695312 -16.109375 5.550781 -17.515625 6.59375 -18.765625 C 7.644531 -20.023438 8.828125 -21.039062 10.140625 -21.8125 C 11.460938 -22.59375 12.8125 -22.984375 14.1875 -22.984375 C 16.226562 -22.984375 17.816406 -23.054688 18.953125 -23.203125 C 20.085938 -23.359375 20.984375 -23.738281 21.640625 -24.34375 Z M 14.453125 -9.34375 C 14.816406 -10.175781 15.117188 -11.039062 15.359375 -11.9375 C 15.597656 -12.84375 15.71875 -13.773438 15.71875 -14.734375 C 15.71875 -16.410156 15.429688 -17.753906 14.859375 -18.765625 C 14.296875 -19.785156 13.382812 -20.296875 12.125 -20.296875 C 10.570312 -20.296875 9.328125 -19.617188 8.390625 -18.265625 C 7.460938 -16.921875 7 -14.8125 7 -11.9375 C 7 -8.46875 8.140625 -6.734375 10.421875 -6.734375 C 11.078125 -6.734375 11.789062 -6.988281 12.5625 -7.5 C 13.34375 -8.007812 13.972656 -8.625 14.453125 -9.34375 Z M 14.453125 -9.34375 "/></g></g></g></svg>