<svg xmlns="http://www.w3.org/2000/svg" xmlns:xlink="http://www.w3.org/1999/xlink" width="300" zoomAndPan="magnify" viewBox="0 0 375 374.999991" height="300" preserveAspectRatio="xMidYMid meet" version="1.0"><defs><g/></defs><g fill="#e4c19d" fill-opacity="1"><g transform="translate(39.09944, 218.258542)"><g><path d="M 59.921875 -61.109375 C 65.785156 -59.847656 70.179688 -57.832031 73.109375 -55.0625 C 77.179688 -51.195312 79.21875 -46.488281 79.21875 -40.9375 C 79.21875 -36.707031 77.882812 -32.65625 75.21875 -28.78125 C 72.550781 -24.914062 68.878906 -22.09375 64.203125 -20.3125 C 59.523438 -18.539062 52.398438 -17.65625 42.828125 -17.65625 L 2.671875 -17.65625 L 2.671875 -20 L 5.890625 -20 C 9.441406 -20 11.972656 -21.125 13.484375 -23.375 C 14.484375 -24.84375 14.984375 -27.953125 14.984375 -32.703125 L 14.984375 -87.6875 C 14.984375 -92.96875 14.378906 -96.289062 13.171875 -97.65625 C 11.503906 -99.488281 9.078125 -100.40625 5.890625 -100.40625 L 2.671875 -100.40625 L 2.671875 -102.75 L 39.453125 -102.75 C 46.304688 -102.75 51.796875 -102.253906 55.921875 -101.265625 C 62.203125 -99.742188 67 -97.0625 70.3125 -93.21875 C 73.632812 -89.375 75.296875 -84.96875 75.296875 -80 C 75.296875 -75.769531 73.988281 -71.96875 71.375 -68.59375 C 68.757812 -65.21875 64.941406 -62.722656 59.921875 -61.109375 Z M 26.984375 -64.46875 C 28.546875 -64.15625 30.320312 -63.929688 32.3125 -63.796875 C 34.300781 -63.671875 36.5 -63.609375 38.90625 -63.609375 C 44.96875 -63.609375 49.539062 -64.257812 52.625 -65.5625 C 55.71875 -66.875 58.070312 -68.890625 59.6875 -71.609375 C 61.3125 -74.328125 62.125 -77.3125 62.125 -80.5625 C 62.125 -85.519531 60.097656 -89.75 56.046875 -93.25 C 51.992188 -96.757812 46.070312 -98.515625 38.28125 -98.515625 C 34.09375 -98.515625 30.328125 -98.070312 26.984375 -97.1875 Z M 26.984375 -23.765625 C 31.847656 -22.671875 36.660156 -22.125 41.421875 -22.125 C 48.941406 -22.125 54.6875 -23.820312 58.65625 -27.21875 C 62.632812 -30.613281 64.625 -34.820312 64.625 -39.84375 C 64.625 -43.132812 63.734375 -46.3125 61.953125 -49.375 C 60.179688 -52.4375 57.253906 -54.84375 53.171875 -56.59375 C 49.097656 -58.34375 44.082031 -59.21875 38.125 -59.21875 C 35.507812 -59.21875 33.285156 -59.175781 31.453125 -59.09375 C 29.617188 -59.019531 28.128906 -58.878906 26.984375 -58.671875 Z M 26.984375 -23.765625 "/></g></g></g><path stroke-linecap="butt" transform="matrix(2.573629, 0, 0, 2.573629, 69.298351, 109.369373)" fill="none" stroke-linejoin="miter" d="M 31.079386 14.31199 L 31.938459 24.768104 L 31.079386 24.768104 C 30.227901 22.172669 29.112319 20.210155 27.73264 18.882082 C 25.779233 16.972691 23.25817 16.017996 20.167932 16.017996 C 15.94997 16.017996 12.742862 17.684539 10.546608 21.017624 C 8.714625 23.8468 7.799393 27.202653 7.799393 31.082146 C 7.799393 34.223988 8.406512 37.097181 9.622269 39.701723 C 10.845614 42.304747 12.442338 44.211102 14.412441 45.417752 C 16.384061 46.624402 18.414875 47.226968 20.506401 47.226968 C 21.729747 47.226968 22.910594 47.075188 24.047425 46.771628 C 25.185774 46.468069 26.278589 46.011211 27.328906 45.404092 L 27.328906 35.860175 C 27.328906 34.193632 27.202928 33.108407 26.950974 32.606015 C 26.699019 32.092999 26.308945 31.702925 25.779233 31.434275 C 25.249522 31.156518 24.317593 31.01688 22.980413 31.01688 L 22.980413 30.106201 L 35.77849 30.106201 L 35.77849 31.01688 L 35.166817 31.01688 C 33.908562 31.01688 33.044935 31.441864 32.575935 32.293349 C 32.255679 32.900468 32.094793 34.090422 32.094793 35.860175 L 32.094793 45.97782 C 30.218794 46.975013 28.370115 47.712663 26.547239 48.19077 C 24.73347 48.667359 22.711763 48.907171 20.480599 48.907171 C 14.101292 48.907171 9.244337 46.853589 5.911251 42.747945 C 3.43724 39.683509 2.200234 36.137932 2.200234 32.111213 C 2.200234 29.212218 2.898421 26.430093 4.296314 23.764839 C 5.946161 20.597194 8.219823 18.158092 11.118818 16.447533 C 13.541224 15.023838 16.396203 14.31199 19.68679 14.31199 C 20.901029 14.31199 21.995362 14.416718 22.966753 14.624657 C 23.948768 14.825006 25.34059 15.24999 27.14677 15.901125 C 28.066556 16.248701 28.678228 16.42173 28.983306 16.42173 C 29.286866 16.42173 29.546409 16.279057 29.763454 15.992193 C 29.989606 15.705329 30.12469 15.145262 30.167189 14.31199 Z M 31.079386 14.31199 " stroke="#07363c" stroke-width="2.599998" stroke-opacity="1" stroke-miterlimit="4"/><g fill="#e4c19d" fill-opacity="1"><g transform="translate(69.298351, 250.918963)"><g><path d="M 80 -104.703125 L 82.1875 -77.796875 L 80 -77.796875 C 77.800781 -84.492188 74.925781 -89.539062 71.375 -92.9375 C 66.351562 -97.851562 59.867188 -100.3125 51.921875 -100.3125 C 41.046875 -100.3125 32.785156 -96.023438 27.140625 -87.453125 C 22.429688 -80.179688 20.078125 -71.550781 20.078125 -61.5625 C 20.078125 -53.457031 21.644531 -46.054688 24.78125 -39.359375 C 27.914062 -32.671875 32.019531 -27.769531 37.09375 -24.65625 C 42.164062 -21.550781 47.394531 -20 52.78125 -20 C 55.914062 -20 58.945312 -20.390625 61.875 -21.171875 C 64.800781 -21.960938 67.625 -23.140625 70.34375 -24.703125 L 70.34375 -49.25 C 70.34375 -53.539062 70.015625 -56.335938 69.359375 -57.640625 C 68.710938 -58.953125 67.707031 -59.957031 66.34375 -60.65625 C 64.988281 -61.363281 62.585938 -61.71875 59.140625 -61.71875 L 59.140625 -64.078125 L 92.078125 -64.078125 L 92.078125 -61.71875 L 90.5 -61.71875 C 87.257812 -61.71875 85.039062 -60.617188 83.84375 -58.421875 C 83 -56.859375 82.578125 -53.800781 82.578125 -49.25 L 82.578125 -23.21875 C 77.773438 -20.65625 73.03125 -18.757812 68.34375 -17.53125 C 63.664062 -16.300781 58.453125 -15.6875 52.703125 -15.6875 C 36.285156 -15.6875 23.789062 -20.96875 15.21875 -31.53125 C 8.832031 -39.425781 5.640625 -48.550781 5.640625 -58.90625 C 5.640625 -66.375 7.445312 -73.535156 11.0625 -80.390625 C 15.289062 -88.546875 21.144531 -94.820312 28.625 -99.21875 C 34.84375 -102.875 42.191406 -104.703125 50.671875 -104.703125 C 53.804688 -104.703125 56.628906 -104.441406 59.140625 -103.921875 C 61.648438 -103.398438 65.226562 -102.300781 69.875 -100.625 C 72.226562 -99.738281 73.796875 -99.296875 74.578125 -99.296875 C 75.367188 -99.296875 76.050781 -99.660156 76.625 -100.390625 C 77.195312 -101.117188 77.535156 -102.554688 77.640625 -104.703125 Z M 80 -104.703125 "/></g></g></g><g fill="#e4c19d" fill-opacity="1"><g transform="translate(164.358684, 187.745655)"><g><path d="M 41.046875 -28.40625 C 42.609375 -27.9375 44 -27.234375 45.21875 -26.296875 C 46.445312 -25.359375 47.488281 -24.28125 48.34375 -23.0625 C 49.207031 -21.84375 49.875 -20.566406 50.34375 -19.234375 C 50.8125 -17.910156 51.046875 -16.625 51.046875 -15.375 C 51.046875 -13.132812 50.613281 -11.078125 49.75 -9.203125 C 48.894531 -7.335938 47.59375 -5.710938 45.84375 -4.328125 C 44.101562 -2.953125 41.878906 -1.882812 39.171875 -1.125 C 36.472656 -0.375 33.273438 0 29.578125 0 C 23.703125 0 18.59375 -0.789062 14.25 -2.375 C 9.90625 -3.96875 5.9375 -6.242188 2.34375 -9.203125 C 2.1875 -9.460938 2.222656 -9.757812 2.453125 -10.09375 C 2.691406 -10.4375 3.046875 -10.738281 3.515625 -11 C 3.984375 -11.257812 4.488281 -11.441406 5.03125 -11.546875 C 5.582031 -11.648438 6.09375 -11.597656 6.5625 -11.390625 C 7.539062 -10.398438 8.523438 -9.757812 9.515625 -9.46875 C 10.503906 -9.1875 11.726562 -9.175781 13.1875 -9.4375 C 14.539062 -9.695312 15.671875 -10.203125 16.578125 -10.953125 C 17.492188 -11.710938 18.328125 -12.898438 19.078125 -14.515625 C 19.835938 -16.128906 20.617188 -18.234375 21.421875 -20.828125 C 22.234375 -23.429688 23.179688 -26.710938 24.265625 -30.671875 C 25.359375 -34.578125 26.722656 -37.957031 28.359375 -40.8125 C 30.003906 -43.675781 32 -46.097656 34.34375 -48.078125 C 34.03125 -48.078125 33.703125 -48.085938 33.359375 -48.109375 C 33.023438 -48.140625 32.648438 -48.15625 32.234375 -48.15625 C 30.515625 -48.15625 28.820312 -47.921875 27.15625 -47.453125 C 25.488281 -46.984375 23.914062 -46.28125 22.4375 -45.34375 C 20.957031 -44.40625 19.617188 -43.269531 18.421875 -41.9375 C 17.222656 -40.613281 16.257812 -39.097656 15.53125 -37.390625 C 15.375 -37.285156 15.226562 -37.269531 15.09375 -37.34375 C 14.96875 -37.425781 14.929688 -37.597656 14.984375 -37.859375 C 15.609375 -39.460938 16.546875 -41.019531 17.796875 -42.53125 C 19.046875 -44.039062 20.550781 -45.367188 22.3125 -46.515625 C 24.082031 -47.660156 26.085938 -48.570312 28.328125 -49.25 C 30.566406 -49.925781 32.9375 -50.265625 35.4375 -50.265625 C 35.800781 -50.265625 36.140625 -50.265625 36.453125 -50.265625 C 36.765625 -50.265625 37.078125 -50.238281 37.390625 -50.1875 C 38.472656 -50.8125 39.613281 -51.367188 40.8125 -51.859375 C 42.007812 -52.359375 43.285156 -52.765625 44.640625 -53.078125 C 44.898438 -53.078125 45.03125 -52.984375 45.03125 -52.796875 C 45.03125 -52.617188 44.898438 -52.476562 44.640625 -52.375 C 42.765625 -51.90625 41.046875 -51.125 39.484375 -50.03125 C 44.066406 -49.457031 47.488281 -48.15625 49.75 -46.125 C 52.019531 -44.09375 53.15625 -41.722656 53.15625 -39.015625 C 53.15625 -37.460938 52.84375 -36.035156 52.21875 -34.734375 C 51.59375 -33.429688 50.742188 -32.3125 49.671875 -31.375 C 48.609375 -30.4375 47.332031 -29.707031 45.84375 -29.1875 C 44.363281 -28.664062 42.765625 -28.40625 41.046875 -28.40625 Z M 31.296875 -1.171875 C 33.640625 -1.171875 35.734375 -1.492188 37.578125 -2.140625 C 39.421875 -2.796875 40.96875 -3.679688 42.21875 -4.796875 C 43.46875 -5.921875 44.414062 -7.234375 45.0625 -8.734375 C 45.71875 -10.242188 46.046875 -11.882812 46.046875 -13.65625 C 46.046875 -20.414062 41.882812 -24.914062 33.5625 -27.15625 C 33.40625 -27.3125 33.46875 -27.554688 33.75 -27.890625 C 34.039062 -28.234375 34.421875 -28.570312 34.890625 -28.90625 C 35.359375 -29.25 35.851562 -29.523438 36.375 -29.734375 C 36.894531 -29.941406 37.3125 -30.019531 37.625 -29.96875 C 38.144531 -29.757812 38.597656 -29.601562 38.984375 -29.5 C 39.367188 -29.394531 39.875 -29.34375 40.5 -29.34375 C 41.4375 -29.34375 42.359375 -29.550781 43.265625 -29.96875 C 44.179688 -30.382812 44.988281 -30.941406 45.6875 -31.640625 C 46.394531 -32.347656 46.96875 -33.195312 47.40625 -34.1875 C 47.851562 -35.175781 48.078125 -36.242188 48.078125 -37.390625 C 48.078125 -39.878906 47.140625 -42.085938 45.265625 -44.015625 C 43.390625 -45.941406 40.582031 -47.191406 36.84375 -47.765625 C 33.507812 -44.328125 30.90625 -39.097656 29.03125 -32.078125 C 27.675781 -27.023438 26.335938 -22.953125 25.015625 -19.859375 C 23.691406 -16.765625 22.3125 -14.34375 20.875 -12.59375 C 19.445312 -10.851562 17.925781 -9.671875 16.3125 -9.046875 C 14.695312 -8.421875 12.875 -8.054688 10.84375 -7.953125 C 13.5 -5.984375 16.59375 -4.359375 20.125 -3.078125 C 23.664062 -1.804688 27.390625 -1.171875 31.296875 -1.171875 Z M 31.296875 -1.171875 "/></g></g></g><g fill="#e4c19d" fill-opacity="1"><g transform="translate(216.254403, 187.745655)"><g><path d="M 35.75 -57.984375 C 36.53125 -57.984375 37.164062 -57.785156 37.65625 -57.390625 C 38.15625 -57.003906 38.492188 -56.484375 38.671875 -55.828125 C 38.859375 -55.179688 38.882812 -54.441406 38.75 -53.609375 C 38.625 -52.785156 38.328125 -51.957031 37.859375 -51.125 C 37.753906 -51.019531 37.625 -51.019531 37.46875 -51.125 C 37.3125 -51.226562 37.207031 -51.359375 37.15625 -51.515625 C 37.257812 -52.140625 37.035156 -52.660156 36.484375 -53.078125 C 35.941406 -53.492188 35.097656 -53.703125 33.953125 -53.703125 C 31.816406 -53.703125 29.664062 -52.90625 27.5 -51.3125 C 25.34375 -49.726562 23.25 -47.632812 21.21875 -45.03125 C 19.195312 -42.425781 17.300781 -39.429688 15.53125 -36.046875 C 13.757812 -32.671875 12.222656 -29.1875 10.921875 -25.59375 C 9.617188 -22.007812 8.59375 -18.445312 7.84375 -14.90625 C 7.09375 -11.363281 6.71875 -8.140625 6.71875 -5.234375 C 6.71875 -3.671875 7.15625 -2.890625 8.03125 -2.890625 C 8.65625 -2.890625 9.265625 -3.148438 9.859375 -3.671875 C 10.460938 -4.191406 11.15625 -4.972656 11.9375 -6.015625 C 12.09375 -6.117188 12.234375 -6.101562 12.359375 -5.96875 C 12.492188 -5.84375 12.535156 -5.675781 12.484375 -5.46875 C 11.441406 -3.90625 10.21875 -2.601562 8.8125 -1.5625 C 7.414062 -0.519531 6.144531 0 5 0 C 4.007812 0 3.316406 -0.285156 2.921875 -0.859375 C 2.535156 -1.429688 2.34375 -2.160156 2.34375 -3.046875 C 2.34375 -5.492188 2.863281 -8.550781 3.90625 -12.21875 C 4.945312 -15.882812 6.335938 -19.757812 8.078125 -23.84375 C 9.816406 -27.925781 11.832031 -31.992188 14.125 -36.046875 C 16.414062 -40.109375 18.796875 -43.765625 21.265625 -47.015625 C 23.734375 -50.273438 26.21875 -52.914062 28.71875 -54.9375 C 31.21875 -56.96875 33.5625 -57.984375 35.75 -57.984375 Z M 35.75 -57.984375 "/></g></g></g><g fill="#e4c19d" fill-opacity="1"><g transform="translate(227.960217, 187.745655)"><g><path d="M 13.96875 -19.984375 C 15.789062 -19.984375 17.144531 -19.4375 18.03125 -18.34375 C 18.914062 -17.25 19.359375 -15.972656 19.359375 -14.515625 C 19.359375 -12.484375 18.953125 -10.597656 18.140625 -8.859375 C 17.335938 -7.117188 16.347656 -5.582031 15.171875 -4.25 C 14.003906 -2.925781 12.742188 -1.882812 11.390625 -1.125 C 10.035156 -0.375 8.816406 0 7.734375 0 C 5.960938 0 4.617188 -0.53125 3.703125 -1.59375 C 2.796875 -2.664062 2.34375 -4.035156 2.34375 -5.703125 C 2.34375 -7.203125 2.664062 -8.785156 3.3125 -10.453125 C 3.96875 -12.117188 4.828125 -13.65625 5.890625 -15.0625 C 6.960938 -16.46875 8.195312 -17.640625 9.59375 -18.578125 C 11 -19.515625 12.457031 -19.984375 13.96875 -19.984375 Z M 9.671875 -2.421875 C 11.285156 -2.421875 12.648438 -3.265625 13.765625 -4.953125 C 14.890625 -6.648438 15.453125 -8.976562 15.453125 -11.9375 C 15.453125 -13.5 15.140625 -14.800781 14.515625 -15.84375 C 13.890625 -16.882812 12.976562 -17.40625 11.78125 -17.40625 C 10.113281 -17.40625 8.757812 -16.597656 7.71875 -14.984375 C 6.6875 -13.367188 6.171875 -11 6.171875 -7.875 C 6.171875 -6.0625 6.492188 -4.695312 7.140625 -3.78125 C 7.785156 -2.875 8.628906 -2.421875 9.671875 -2.421875 Z M 9.671875 -2.421875 "/></g></g></g><g fill="#e4c19d" fill-opacity="1"><g transform="translate(248.094196, 187.745655)"><g><path d="M 18.8125 -21.15625 C 18.96875 -21.257812 19.125 -21.242188 19.28125 -21.109375 C 19.4375 -20.984375 19.488281 -20.84375 19.4375 -20.6875 C 19.019531 -20.113281 18.550781 -19.59375 18.03125 -19.125 C 17.507812 -18.65625 16.859375 -18.367188 16.078125 -18.265625 C 16.804688 -17.429688 17.171875 -16.414062 17.171875 -15.21875 C 17.171875 -13.914062 16.972656 -12.78125 16.578125 -11.8125 C 16.191406 -10.851562 15.738281 -9.957031 15.21875 -9.125 C 14.695312 -8.289062 14.175781 -7.523438 13.65625 -6.828125 C 13.132812 -6.128906 12.726562 -5.414062 12.4375 -4.6875 C 12.15625 -3.957031 12.050781 -3.160156 12.125 -2.296875 C 12.207031 -1.441406 12.613281 -0.46875 13.34375 0.625 C 14.488281 2.394531 15.332031 3.957031 15.875 5.3125 C 16.425781 6.664062 16.703125 8.117188 16.703125 9.671875 C 16.703125 10.972656 16.398438 12.179688 15.796875 13.296875 C 15.203125 14.421875 14.359375 15.410156 13.265625 16.265625 C 12.171875 17.128906 10.832031 17.804688 9.25 18.296875 C 7.664062 18.796875 5.910156 19.046875 3.984375 19.046875 C 0.0234375 19.046875 -3.09375 18.316406 -5.375 16.859375 C -7.664062 15.398438 -8.8125 13.472656 -8.8125 11.078125 C -8.8125 9.253906 -8.175781 7.628906 -6.90625 6.203125 C -5.632812 4.773438 -3.75 3.722656 -1.25 3.046875 C -0.988281 3.046875 -0.816406 3.132812 -0.734375 3.3125 C -0.660156 3.5 -0.675781 3.671875 -0.78125 3.828125 C -1.925781 4.242188 -2.835938 4.867188 -3.515625 5.703125 C -4.191406 6.535156 -4.53125 7.625 -4.53125 8.96875 C -4.53125 11.625 -3.617188 13.769531 -1.796875 15.40625 C 0.0234375 17.050781 2.421875 17.875 5.390625 17.875 C 7.878906 17.875 9.722656 17.222656 10.921875 15.921875 C 12.117188 14.617188 12.71875 12.976562 12.71875 11 C 12.71875 9.800781 12.535156 8.734375 12.171875 7.796875 C 11.804688 6.867188 11.285156 5.804688 10.609375 4.609375 C 9.617188 2.941406 9.175781 1.328125 9.28125 -0.234375 C 9.382812 -1.796875 9.90625 -3.382812 10.84375 -5 C 10.894531 -5.101562 10.929688 -5.164062 10.953125 -5.1875 C 10.984375 -5.21875 11.023438 -5.285156 11.078125 -5.390625 C 10.503906 -4.816406 9.890625 -4.347656 9.234375 -3.984375 C 8.585938 -3.617188 7.957031 -3.4375 7.34375 -3.4375 C 5.832031 -3.4375 4.671875 -3.878906 3.859375 -4.765625 C 3.054688 -5.648438 2.65625 -6.945312 2.65625 -8.65625 C 2.65625 -9.957031 2.941406 -11.285156 3.515625 -12.640625 C 4.085938 -13.992188 4.828125 -15.21875 5.734375 -16.3125 C 6.648438 -17.40625 7.675781 -18.289062 8.8125 -18.96875 C 9.957031 -19.644531 11.128906 -19.984375 12.328125 -19.984375 C 14.097656 -19.984375 15.476562 -20.046875 16.46875 -20.171875 C 17.457031 -20.304688 18.238281 -20.632812 18.8125 -21.15625 Z M 12.5625 -8.109375 C 12.875 -8.835938 13.132812 -9.59375 13.34375 -10.375 C 13.550781 -11.15625 13.65625 -11.960938 13.65625 -12.796875 C 13.65625 -14.253906 13.40625 -15.425781 12.90625 -16.3125 C 12.414062 -17.195312 11.625 -17.640625 10.53125 -17.640625 C 9.175781 -17.640625 8.097656 -17.050781 7.296875 -15.875 C 6.492188 -14.707031 6.09375 -12.875 6.09375 -10.375 C 6.09375 -7.363281 7.078125 -5.859375 9.046875 -5.859375 C 9.617188 -5.859375 10.242188 -6.078125 10.921875 -6.515625 C 11.597656 -6.960938 12.144531 -7.492188 12.5625 -8.109375 Z M 12.5625 -8.109375 "/></g></g></g><g fill="#e4c19d" fill-opacity="1"><g transform="translate(266.667419, 187.745655)"><g><path d="M 18.8125 -21.15625 C 18.96875 -21.257812 19.125 -21.242188 19.28125 -21.109375 C 19.4375 -20.984375 19.488281 -20.84375 19.4375 -20.6875 C 19.019531 -20.113281 18.550781 -19.59375 18.03125 -19.125 C 17.507812 -18.65625 16.859375 -18.367188 16.078125 -18.265625 C 16.804688 -17.429688 17.171875 -16.414062 17.171875 -15.21875 C 17.171875 -13.914062 16.972656 -12.78125 16.578125 -11.8125 C 16.191406 -10.851562 15.738281 -9.957031 15.21875 -9.125 C 14.695312 -8.289062 14.175781 -7.523438 13.65625 -6.828125 C 13.132812 -6.128906 12.726562 -5.414062 12.4375 -4.6875 C 12.15625 -3.957031 12.050781 -3.160156 12.125 -2.296875 C 12.207031 -1.441406 12.613281 -0.46875 13.34375 0.625 C 14.488281 2.394531 15.332031 3.957031 15.875 5.3125 C 16.425781 6.664062 16.703125 8.117188 16.703125 9.671875 C 16.703125 10.972656 16.398438 12.179688 15.796875 13.296875 C 15.203125 14.421875 14.359375 15.410156 13.265625 16.265625 C 12.171875 17.128906 10.832031 17.804688 9.25 18.296875 C 7.664062 18.796875 5.910156 19.046875 3.984375 19.046875 C 0.0234375 19.046875 -3.09375 18.316406 -5.375 16.859375 C -7.664062 15.398438 -8.8125 13.472656 -8.8125 11.078125 C -8.8125 9.253906 -8.175781 7.628906 -6.90625 6.203125 C -5.632812 4.773438 -3.75 3.722656 -1.25 3.046875 C -0.988281 3.046875 -0.816406 3.132812 -0.734375 3.3125 C -0.660156 3.5 -0.675781 3.671875 -0.78125 3.828125 C -1.925781 4.242188 -2.835938 4.867188 -3.515625 5.703125 C -4.191406 6.535156 -4.53125 7.625 -4.53125 8.96875 C -4.53125 11.625 -3.617188 13.769531 -1.796875 15.40625 C 0.0234375 17.050781 2.421875 17.875 5.390625 17.875 C 7.878906 17.875 9.722656 17.222656 10.921875 15.921875 C 12.117188 14.617188 12.71875 12.976562 12.71875 11 C 12.71875 9.800781 12.535156 8.734375 12.171875 7.796875 C 11.804688 6.867188 11.285156 5.804688 10.609375 4.609375 C 9.617188 2.941406 9.175781 1.328125 9.28125 -0.234375 C 9.382812 -1.796875 9.90625 -3.382812 10.84375 -5 C 10.894531 -5.101562 10.929688 -5.164062 10.953125 -5.1875 C 10.984375 -5.21875 11.023438 -5.285156 11.078125 -5.390625 C 10.503906 -4.816406 9.890625 -4.347656 9.234375 -3.984375 C 8.585938 -3.617188 7.957031 -3.4375 7.34375 -3.4375 C 5.832031 -3.4375 4.671875 -3.878906 3.859375 -4.765625 C 3.054688 -5.648438 2.65625 -6.945312 2.65625 -8.65625 C 2.65625 -9.957031 2.941406 -11.285156 3.515625 -12.640625 C 4.085938 -13.992188 4.828125 -15.21875 5.734375 -16.3125 C 6.648438 -17.40625 7.675781 -18.289062 8.8125 -18.96875 C 9.957031 -19.644531 11.128906 -19.984375 12.328125 -19.984375 C 14.097656 -19.984375 15.476562 -20.046875 16.46875 -20.171875 C 17.457031 -20.304688 18.238281 -20.632812 18.8125 -21.15625 Z M 12.5625 -8.109375 C 12.875 -8.835938 13.132812 -9.59375 13.34375 -10.375 C 13.550781 -11.15625 13.65625 -11.960938 13.65625 -12.796875 C 13.65625 -14.253906 13.40625 -15.425781 12.90625 -16.3125 C 12.414062 -17.195312 11.625 -17.640625 10.53125 -17.640625 C 9.175781 -17.640625 8.097656 -17.050781 7.296875 -15.875 C 6.492188 -14.707031 6.09375 -12.875 6.09375 -10.375 C 6.09375 -7.363281 7.078125 -5.859375 9.046875 -5.859375 C 9.617188 -5.859375 10.242188 -6.078125 10.921875 -6.515625 C 11.597656 -6.960938 12.144531 -7.492188 12.5625 -8.109375 Z M 12.5625 -8.109375 "/></g></g></g><g fill="#e4c19d" fill-opacity="1"><g transform="translate(285.240642, 187.745655)"><g><path d="M 12.40625 -23.34375 C 12.25 -23.1875 12.078125 -23.179688 11.890625 -23.328125 C 11.710938 -23.484375 11.570312 -23.703125 11.46875 -23.984375 C 11.363281 -24.273438 11.3125 -24.585938 11.3125 -24.921875 C 11.3125 -25.265625 11.390625 -25.566406 11.546875 -25.828125 C 12.117188 -26.554688 12.960938 -27.476562 14.078125 -28.59375 C 15.203125 -29.71875 16.363281 -30.671875 17.5625 -31.453125 C 17.664062 -31.503906 17.796875 -31.460938 17.953125 -31.328125 C 18.109375 -31.203125 18.160156 -31.085938 18.109375 -30.984375 C 17.015625 -29.992188 15.972656 -28.804688 14.984375 -27.421875 C 13.992188 -26.046875 13.132812 -24.6875 12.40625 -23.34375 Z M 4.0625 -14.515625 C 3.90625 -14.410156 3.773438 -14.445312 3.671875 -14.625 C 3.566406 -14.8125 3.539062 -14.984375 3.59375 -15.140625 C 5.519531 -16.703125 8.195312 -18.316406 11.625 -19.984375 C 12.039062 -19.984375 12.25 -19.75 12.25 -19.28125 C 11.570312 -18.082031 10.90625 -16.78125 10.25 -15.375 C 9.601562 -13.96875 9.03125 -12.570312 8.53125 -11.1875 C 8.039062 -9.8125 7.640625 -8.488281 7.328125 -7.21875 C 7.023438 -5.945312 6.875 -4.894531 6.875 -4.0625 C 6.875 -3.019531 7.234375 -2.5 7.953125 -2.5 C 8.523438 -2.5 9.082031 -2.742188 9.625 -3.234375 C 10.175781 -3.734375 10.816406 -4.375 11.546875 -5.15625 C 11.648438 -5.257812 11.78125 -5.242188 11.9375 -5.109375 C 12.09375 -4.984375 12.117188 -4.789062 12.015625 -4.53125 C 10.867188 -3.175781 9.738281 -2.082031 8.625 -1.25 C 7.507812 -0.414062 6.429688 0 5.390625 0 C 3.566406 0 2.65625 -0.859375 2.65625 -2.578125 C 2.65625 -3.515625 2.796875 -4.617188 3.078125 -5.890625 C 3.367188 -7.160156 3.757812 -8.457031 4.25 -9.78125 C 4.75 -11.113281 5.296875 -12.414062 5.890625 -13.6875 C 6.492188 -14.96875 7.109375 -16.078125 7.734375 -17.015625 C 7.160156 -16.703125 6.519531 -16.3125 5.8125 -15.84375 C 5.113281 -15.375 4.53125 -14.929688 4.0625 -14.515625 Z M 4.0625 -14.515625 "/></g></g></g><g fill="#e4c19d" fill-opacity="1"><g transform="translate(298.195067, 187.745655)"><g><path d="M 24.5 -5.46875 C 24.601562 -5.570312 24.734375 -5.554688 24.890625 -5.421875 C 25.046875 -5.296875 25.097656 -5.128906 25.046875 -4.921875 C 24.109375 -3.617188 23.03125 -2.472656 21.8125 -1.484375 C 20.59375 -0.492188 19.382812 0 18.1875 0 C 17.300781 0 16.609375 -0.285156 16.109375 -0.859375 C 15.617188 -1.429688 15.375 -2.1875 15.375 -3.125 C 15.375 -4.945312 15.695312 -6.921875 16.34375 -9.046875 C 17 -11.179688 17.875 -13.34375 18.96875 -15.53125 C 19.125 -15.894531 19.203125 -16.285156 19.203125 -16.703125 C 19.203125 -17.222656 18.96875 -17.484375 18.5 -17.484375 C 16.570312 -17.484375 14.4375 -16.164062 12.09375 -13.53125 C 9.75 -10.90625 7.59375 -6.734375 5.625 -1.015625 C 5.570312 -0.859375 5.398438 -0.710938 5.109375 -0.578125 C 4.828125 -0.453125 4.503906 -0.347656 4.140625 -0.265625 C 3.773438 -0.191406 3.410156 -0.128906 3.046875 -0.078125 C 2.679688 -0.0234375 2.394531 0 2.1875 0 C 1.925781 0 1.726562 -0.0507812 1.59375 -0.15625 C 1.46875 -0.257812 1.457031 -0.441406 1.5625 -0.703125 C 2.445312 -2.941406 3.34375 -5.398438 4.25 -8.078125 C 5.164062 -10.753906 5.960938 -13.445312 6.640625 -16.15625 C 6.796875 -16.675781 6.820312 -17.050781 6.71875 -17.28125 C 6.613281 -17.519531 6.429688 -17.640625 6.171875 -17.640625 C 5.597656 -17.640625 5.050781 -17.390625 4.53125 -16.890625 C 4.007812 -16.398438 3.539062 -15.867188 3.125 -15.296875 C 2.96875 -15.191406 2.820312 -15.21875 2.6875 -15.375 C 2.5625 -15.53125 2.523438 -15.6875 2.578125 -15.84375 C 2.835938 -16.207031 3.1875 -16.625 3.625 -17.09375 C 4.070312 -17.5625 4.582031 -18.015625 5.15625 -18.453125 C 5.726562 -18.898438 6.320312 -19.265625 6.9375 -19.546875 C 7.5625 -19.835938 8.1875 -19.984375 8.8125 -19.984375 C 9.695312 -19.984375 10.28125 -19.707031 10.5625 -19.15625 C 10.851562 -18.613281 10.921875 -17.953125 10.765625 -17.171875 C 10.503906 -16.023438 10.226562 -14.941406 9.9375 -13.921875 C 9.65625 -12.910156 9.304688 -11.78125 8.890625 -10.53125 C 9.515625 -11.675781 10.28125 -12.804688 11.1875 -13.921875 C 12.101562 -15.046875 13.117188 -16.0625 14.234375 -16.96875 C 15.359375 -17.882812 16.570312 -18.613281 17.875 -19.15625 C 19.175781 -19.707031 20.554688 -19.984375 22.015625 -19.984375 C 22.640625 -19.984375 23.117188 -19.828125 23.453125 -19.515625 C 23.785156 -19.203125 23.953125 -18.835938 23.953125 -18.421875 C 23.953125 -17.691406 23.769531 -17.039062 23.40625 -16.46875 C 22.320312 -14.488281 21.398438 -12.445312 20.640625 -10.34375 C 19.890625 -8.238281 19.515625 -6.351562 19.515625 -4.6875 C 19.515625 -3.332031 19.957031 -2.65625 20.84375 -2.65625 C 21.414062 -2.65625 21.984375 -2.890625 22.546875 -3.359375 C 23.117188 -3.828125 23.769531 -4.53125 24.5 -5.46875 Z M 24.5 -5.46875 "/></g></g></g><g fill="#e4c19d" fill-opacity="1"><g transform="translate(323.323523, 187.745655)"><g><path d="M 18.8125 -21.15625 C 18.96875 -21.257812 19.125 -21.242188 19.28125 -21.109375 C 19.4375 -20.984375 19.488281 -20.84375 19.4375 -20.6875 C 19.019531 -20.113281 18.550781 -19.59375 18.03125 -19.125 C 17.507812 -18.65625 16.859375 -18.367188 16.078125 -18.265625 C 16.804688 -17.429688 17.171875 -16.414062 17.171875 -15.21875 C 17.171875 -13.914062 16.972656 -12.78125 16.578125 -11.8125 C 16.191406 -10.851562 15.738281 -9.957031 15.21875 -9.125 C 14.695312 -8.289062 14.175781 -7.523438 13.65625 -6.828125 C 13.132812 -6.128906 12.726562 -5.414062 12.4375 -4.6875 C 12.15625 -3.957031 12.050781 -3.160156 12.125 -2.296875 C 12.207031 -1.441406 12.613281 -0.46875 13.34375 0.625 C 14.488281 2.394531 15.332031 3.957031 15.875 5.3125 C 16.425781 6.664062 16.703125 8.117188 16.703125 9.671875 C 16.703125 10.972656 16.398438 12.179688 15.796875 13.296875 C 15.203125 14.421875 14.359375 15.410156 13.265625 16.265625 C 12.171875 17.128906 10.832031 17.804688 9.25 18.296875 C 7.664062 18.796875 5.910156 19.046875 3.984375 19.046875 C 0.0234375 19.046875 -3.09375 18.316406 -5.375 16.859375 C -7.664062 15.398438 -8.8125 13.472656 -8.8125 11.078125 C -8.8125 9.253906 -8.175781 7.628906 -6.90625 6.203125 C -5.632812 4.773438 -3.75 3.722656 -1.25 3.046875 C -0.988281 3.046875 -0.816406 3.132812 -0.734375 3.3125 C -0.660156 3.5 -0.675781 3.671875 -0.78125 3.828125 C -1.925781 4.242188 -2.835938 4.867188 -3.515625 5.703125 C -4.191406 6.535156 -4.53125 7.625 -4.53125 8.96875 C -4.53125 11.625 -3.617188 13.769531 -1.796875 15.40625 C 0.0234375 17.050781 2.421875 17.875 5.390625 17.875 C 7.878906 17.875 9.722656 17.222656 10.921875 15.921875 C 12.117188 14.617188 12.71875 12.976562 12.71875 11 C 12.71875 9.800781 12.535156 8.734375 12.171875 7.796875 C 11.804688 6.867188 11.285156 5.804688 10.609375 4.609375 C 9.617188 2.941406 9.175781 1.328125 9.28125 -0.234375 C 9.382812 -1.796875 9.90625 -3.382812 10.84375 -5 C 10.894531 -5.101562 10.929688 -5.164062 10.953125 -5.1875 C 10.984375 -5.21875 11.023438 -5.285156 11.078125 -5.390625 C 10.503906 -4.816406 9.890625 -4.347656 9.234375 -3.984375 C 8.585938 -3.617188 7.957031 -3.4375 7.34375 -3.4375 C 5.832031 -3.4375 4.671875 -3.878906 3.859375 -4.765625 C 3.054688 -5.648438 2.65625 -6.945312 2.65625 -8.65625 C 2.65625 -9.957031 2.941406 -11.285156 3.515625 -12.640625 C 4.085938 -13.992188 4.828125 -15.21875 5.734375 -16.3125 C 6.648438 -17.40625 7.675781 -18.289062 8.8125 -18.96875 C 9.957031 -19.644531 11.128906 -19.984375 12.328125 -19.984375 C 14.097656 -19.984375 15.476562 -20.046875 16.46875 -20.171875 C 17.457031 -20.304688 18.238281 -20.632812 18.8125 -21.15625 Z M 12.5625 -8.109375 C 12.875 -8.835938 13.132812 -9.59375 13.34375 -10.375 C 13.550781 -11.15625 13.65625 -11.960938 13.65625 -12.796875 C 13.65625 -14.253906 13.40625 -15.425781 12.90625 -16.3125 C 12.414062 -17.195312 11.625 -17.640625 10.53125 -17.640625 C 9.175781 -17.640625 8.097656 -17.050781 7.296875 -15.875 C 6.492188 -14.707031 6.09375 -12.875 6.09375 -10.375 C 6.09375 -7.363281 7.078125 -5.859375 9.046875 -5.859375 C 9.617188 -5.859375 10.242188 -6.078125 10.921875 -6.515625 C 11.597656 -6.960938 12.144531 -7.492188 12.5625 -8.109375 Z M 12.5625 -8.109375 "/></g></g></g></svg>